<mxfile host="app.diagrams.net" modified="2023-12-10T05:02:22.436Z" agent="Mozilla/5.0 (Windows NT 10.0; Win64; x64) AppleWebKit/537.36 (KHTML, like Gecko) Chrome/119.0.0.0 Safari/537.36" etag="Ei00d6cgSLN0PY_bXt77" version="22.1.7" type="github">
  <diagram name="Halaman-1" id="iPfQbIwe6Rn89UpQMXPP">
    <mxGraphModel dx="993" dy="598" grid="1" gridSize="10" guides="1" tooltips="1" connect="1" arrows="1" fold="1" page="1" pageScale="1" pageWidth="827" pageHeight="1169" math="0" shadow="0">
      <root>
        <mxCell id="0" />
        <mxCell id="1" parent="0" />
        <mxCell id="Lp0eXfIv1weGBH_2pq8e-1" style="edgeStyle=orthogonalEdgeStyle;rounded=0;orthogonalLoop=1;jettySize=auto;html=1;exitX=0.5;exitY=1;exitDx=0;exitDy=0;" parent="1" edge="1">
          <mxGeometry relative="1" as="geometry">
            <mxPoint x="320" y="90" as="sourcePoint" />
            <mxPoint x="320" y="90" as="targetPoint" />
          </mxGeometry>
        </mxCell>
        <mxCell id="E5xlS2dG9Moe7ySJrpvK-8" value="" style="edgeStyle=orthogonalEdgeStyle;rounded=0;orthogonalLoop=1;jettySize=auto;html=1;" edge="1" parent="1" source="Lp0eXfIv1weGBH_2pq8e-2" target="Lp0eXfIv1weGBH_2pq8e-4">
          <mxGeometry relative="1" as="geometry" />
        </mxCell>
        <mxCell id="Lp0eXfIv1weGBH_2pq8e-2" value="input u, a dan t" style="rounded=0;whiteSpace=wrap;html=1;strokeWidth=2;" parent="1" vertex="1">
          <mxGeometry x="260" y="120" width="120" height="40" as="geometry" />
        </mxCell>
        <mxCell id="E5xlS2dG9Moe7ySJrpvK-5" value="" style="edgeStyle=orthogonalEdgeStyle;rounded=0;orthogonalLoop=1;jettySize=auto;html=1;" edge="1" parent="1" source="Lp0eXfIv1weGBH_2pq8e-3" target="Lp0eXfIv1weGBH_2pq8e-5">
          <mxGeometry relative="1" as="geometry" />
        </mxCell>
        <mxCell id="Lp0eXfIv1weGBH_2pq8e-3" value="Hitung volume&amp;nbsp;&lt;br&gt;v= (4/3)*22/7 *6^3" style="shape=parallelogram;perimeter=parallelogramPerimeter;whiteSpace=wrap;html=1;fixedSize=1;strokeWidth=2;" parent="1" vertex="1">
          <mxGeometry x="240" y="320" width="160" height="40" as="geometry" />
        </mxCell>
        <mxCell id="E5xlS2dG9Moe7ySJrpvK-6" value="" style="edgeStyle=orthogonalEdgeStyle;rounded=0;orthogonalLoop=1;jettySize=auto;html=1;" edge="1" parent="1" source="Lp0eXfIv1weGBH_2pq8e-4" target="Lp0eXfIv1weGBH_2pq8e-3">
          <mxGeometry relative="1" as="geometry" />
        </mxCell>
        <mxCell id="Lp0eXfIv1weGBH_2pq8e-4" value="v = u + at" style="rhombus;whiteSpace=wrap;html=1;strokeWidth=2;" parent="1" vertex="1">
          <mxGeometry x="260" y="190" width="120" height="80" as="geometry" />
        </mxCell>
        <mxCell id="Lp0eXfIv1weGBH_2pq8e-11" value="" style="edgeStyle=orthogonalEdgeStyle;rounded=0;orthogonalLoop=1;jettySize=auto;html=1;" parent="1" source="Lp0eXfIv1weGBH_2pq8e-5" edge="1">
          <mxGeometry relative="1" as="geometry">
            <mxPoint x="319.9999999999999" y="480" as="targetPoint" />
          </mxGeometry>
        </mxCell>
        <mxCell id="Lp0eXfIv1weGBH_2pq8e-5" value="tampilkan hasil volume boloa" style="shape=parallelogram;perimeter=parallelogramPerimeter;whiteSpace=wrap;html=1;fixedSize=1;strokeWidth=2;" parent="1" vertex="1">
          <mxGeometry x="260" y="400" width="120" height="40" as="geometry" />
        </mxCell>
        <mxCell id="E5xlS2dG9Moe7ySJrpvK-7" style="edgeStyle=orthogonalEdgeStyle;rounded=0;orthogonalLoop=1;jettySize=auto;html=1;entryX=0.5;entryY=0;entryDx=0;entryDy=0;" edge="1" parent="1" source="E5xlS2dG9Moe7ySJrpvK-1" target="Lp0eXfIv1weGBH_2pq8e-2">
          <mxGeometry relative="1" as="geometry" />
        </mxCell>
        <mxCell id="E5xlS2dG9Moe7ySJrpvK-1" value="Mulai" style="strokeWidth=2;html=1;shape=mxgraph.flowchart.terminator;whiteSpace=wrap;" vertex="1" parent="1">
          <mxGeometry x="280" y="40" width="80" height="50" as="geometry" />
        </mxCell>
        <mxCell id="E5xlS2dG9Moe7ySJrpvK-2" value="selesai" style="strokeWidth=2;html=1;shape=mxgraph.flowchart.terminator;whiteSpace=wrap;" vertex="1" parent="1">
          <mxGeometry x="285" y="565" width="70" height="40" as="geometry" />
        </mxCell>
        <mxCell id="E5xlS2dG9Moe7ySJrpvK-4" value="" style="edgeStyle=orthogonalEdgeStyle;rounded=0;orthogonalLoop=1;jettySize=auto;html=1;" edge="1" parent="1" source="E5xlS2dG9Moe7ySJrpvK-3" target="E5xlS2dG9Moe7ySJrpvK-2">
          <mxGeometry relative="1" as="geometry" />
        </mxCell>
        <mxCell id="E5xlS2dG9Moe7ySJrpvK-3" value="905 cm3" style="shape=parallelogram;perimeter=parallelogramPerimeter;whiteSpace=wrap;html=1;fixedSize=1;strokeWidth=2;" vertex="1" parent="1">
          <mxGeometry x="260" y="490" width="120" height="40" as="geometry" />
        </mxCell>
      </root>
    </mxGraphModel>
  </diagram>
</mxfile>
